<?xml version="1.0" encoding="UTF-8"?>
<svg width="24" height="24" version="1.1" xmlns="http://www.w3.org/2000/svg" xmlns:cc="http://creativecommons.org/ns#" xmlns:dc="http://purl.org/dc/elements/1.1/" xmlns:rdf="http://www.w3.org/1999/02/22-rdf-syntax-ns#">
 <metadata>
  <rdf:RDF>
   <cc:Work rdf:about="">
    <dc:format>image/svg+xml</dc:format>
    <dc:type rdf:resource="http://purl.org/dc/dcmitype/StillImage"/>
    <dc:title/>
   </cc:Work>
  </rdf:RDF>
 </metadata>
 <path d="m11.961 0a11.961 11.961 0 1 0 0 23.923 11.961 11.961 0 1 0 0-23.923zm-5.9339 4.3142a9.683 9.683 0 0 1 5.9339-2.0359 9.683 9.683 0 0 1 9.683 9.683 9.683 9.683 0 0 1-2.0359 5.9339zm11.868 15.294a9.683 9.683 0 0 1-5.9339 2.0359 9.683 9.683 0 0 1-9.683-9.683 9.683 9.683 0 0 1 2.0359-5.9339z" fill="#f00" stroke-width=".079742"/>
</svg>
